<?xml version="1.0" standalone="no"?>
<!DOCTYPE svg PUBLIC "-//W3C//DTD SVG 20010904//EN"
 "http://www.w3.org/TR/2001/REC-SVG-20010904/DTD/svg10.dtd">
<svg version="1.0" xmlns="http://www.w3.org/2000/svg"
 width="1080.000000pt" height="1080.000000pt" viewBox="0 0 1080.000000 1080.000000"
 preserveAspectRatio="xMidYMid meet">

<g transform="translate(0.000000,1080.000000) scale(0.100000,-0.100000)"
fill="#000000" stroke="none">
<path d="M1690 10634 c-233 -33 -514 -129 -585 -199 -66 -66 -81 -155 -38
-240 8 -16 180 -195 381 -398 l367 -367 -223 -223 -222 -222 -372 372 c-380
380 -408 403 -480 403 -99 0 -157 -43 -209 -155 -120 -256 -175 -570 -150
-859 57 -679 456 -1233 1078 -1499 125 -53 335 -110 468 -126 246 -30 536 -1
769 75 l79 26 681 -681 681 -681 -1721 -1722 c-1183 -1184 -1740 -1748 -1781
-1803 -109 -149 -195 -342 -234 -526 -19 -85 -23 -137 -23 -279 -1 -198 13
-286 71 -454 159 -458 548 -797 1031 -898 149 -31 391 -31 539 1 180 38 346
108 508 215 79 52 295 264 1823 1790 l1732 1731 680 -680 679 -680 -34 -111
c-59 -193 -70 -273 -70 -519 0 -248 15 -353 81 -553 273 -836 1123 -1347 1984
-1192 186 34 409 109 490 165 68 47 100 133 80 218 -12 50 -24 63 -389 430
l-376 377 223 223 222 222 367 -367 c203 -201 384 -374 403 -384 55 -28 135
-25 192 9 61 35 69 48 127 197 90 228 123 404 124 650 1 469 -167 894 -488
1229 -271 283 -628 466 -1023 526 -117 17 -373 20 -489 5 -103 -14 -230 -43
-323 -75 l-75 -25 -865 865 -865 865 1285 1284 1285 1283 240 78 c253 82 317
108 351 147 12 12 231 317 487 675 323 452 470 665 477 695 13 45 7 109 -13
145 -20 36 -974 991 -1007 1008 -52 27 -121 30 -171 8 -57 -25 -1312 -922
-1360 -972 -32 -33 -47 -69 -125 -304 l-89 -267 -1282 -1282 -1283 -1283 -327
325 c-180 179 -569 566 -865 861 l-539 537 21 61 c68 203 95 397 87 626 -10
292 -68 514 -202 773 -143 278 -386 531 -671 700 -167 99 -399 183 -604 217
-136 23 -391 28 -520 9z m480 -420 c408 -71 784 -355 965 -728 93 -192 132
-346 142 -556 9 -205 -18 -366 -95 -560 -46 -117 -50 -198 -13 -270 16 -32
292 -314 934 -957 l912 -913 -222 -222 -223 -223 -922 921 c-845 843 -927 923
-972 938 -74 24 -126 20 -224 -18 -243 -94 -435 -122 -667 -97 -699 75 -1214
642 -1219 1341 -1 125 18 300 33 300 3 0 150 -144 326 -321 176 -176 337 -329
357 -340 47 -24 121 -24 173 0 27 13 172 151 436 417 432 435 427 428 416 531
-4 40 -14 65 -41 101 -19 26 -170 182 -335 346 -165 165 -299 301 -298 302 3
3 109 20 177 28 60 7 271 -5 360 -20z m7670 -379 l334 -334 -25 -34 c-13 -19
-188 -263 -388 -544 l-364 -509 -266 -88 -266 -89 -1688 -1686 -1687 -1686
-312 313 -313 312 1683 1683 c925 925 1682 1684 1683 1687 0 3 42 125 92 273
l92 268 540 384 c297 212 542 385 545 385 3 0 156 -151 340 -335z m-4956
-4948 c372 -370 676 -678 676 -683 0 -5 -88 -97 -195 -204 l-195 -195 -682
683 -683 682 195 195 c107 107 198 195 202 195 4 0 311 -303 682 -673z m3240
-1731 c75 -25 114 -20 246 29 191 72 283 88 495 89 107 1 207 -4 247 -12 532
-101 945 -483 1078 -997 30 -118 54 -317 46 -393 -3 -26 -11 -91 -17 -145
l-12 -99 -326 326 c-216 215 -339 330 -363 341 -43 17 -124 20 -165 4 -42 -15
-821 -795 -844 -844 -23 -49 -24 -125 -3 -168 9 -18 162 -179 341 -358 179
-180 321 -329 316 -332 -23 -14 -153 -27 -275 -28 -232 -1 -428 45 -629 147
-631 322 -903 1061 -636 1729 42 105 44 186 5 260 -20 37 -257 280 -937 960
l-911 910 222 222 223 223 925 -924 c846 -845 929 -925 974 -940z m-3461 142
l-218 -218 -682 682 -683 683 217 217 218 218 682 -682 683 -683 -217 -217z
m-1191 164 l678 -677 -978 -978 c-606 -608 -1009 -1003 -1062 -1044 -106 -81
-218 -136 -346 -170 -83 -22 -121 -26 -234 -26 -209 -1 -367 46 -534 157 -397
264 -541 770 -345 1204 69 153 79 164 1128 1214 553 554 1008 1005 1011 1002
3 -2 310 -309 682 -682z"/>
</g>
</svg>
