<?xml version="1.0" standalone="no"?>
<!DOCTYPE svg PUBLIC "-//W3C//DTD SVG 20010904//EN"
 "http://www.w3.org/TR/2001/REC-SVG-20010904/DTD/svg10.dtd">
<svg version="1.0" xmlns="http://www.w3.org/2000/svg"
 width="1080.000000pt" height="1080.000000pt" viewBox="0 0 1080.000000 1080.000000"
 preserveAspectRatio="xMidYMid meet">

<g transform="translate(0.000000,1080.000000) scale(0.100000,-0.100000)"
fill="#000000" stroke="none">
<path d="M4380 10695 c-295 -56 -504 -205 -680 -485 -149 -239 -170 -267 -235
-329 -92 -85 -173 -121 -426 -186 -165 -43 -237 -67 -314 -105 -284 -139 -480
-408 -526 -721 -9 -64 -9 -138 1 -343 11 -235 11 -268 -4 -330 -28 -117 -69
-187 -228 -384 -150 -187 -202 -267 -245 -372 -95 -236 -87 -522 21 -754 43
-93 106 -184 230 -331 133 -157 177 -225 206 -315 27 -83 29 -117 20 -530 -5
-202 -4 -220 18 -300 72 -261 229 -467 457 -597 86 -49 170 -79 390 -137 205
-53 255 -72 327 -119 56 -38 146 -126 166 -163 9 -17 -13 -77 -138 -370 -532
-1254 -949 -2239 -1052 -2483 -115 -272 -120 -287 -116 -342 3 -43 11 -66 32
-94 29 -38 94 -74 133 -75 12 0 135 27 275 59 663 156 821 192 834 189 7 -2
104 -111 215 -243 111 -132 303 -361 427 -508 158 -188 237 -274 263 -288 42
-21 118 -25 152 -8 41 21 87 73 97 109 8 30 106 527 406 2060 41 212 123 633
183 935 l107 550 62 3 c34 2 62 -1 62 -5 0 -5 52 -274 116 -598 63 -325 137
-702 164 -840 353 -1815 413 -2112 431 -2142 48 -77 154 -100 237 -52 30 17
159 164 453 514 226 270 418 498 428 507 15 17 45 11 551 -108 408 -96 546
-124 582 -121 111 10 187 121 155 227 -8 25 -192 443 -410 930 -217 487 -524
1172 -681 1524 l-285 639 32 46 c94 137 201 198 477 271 237 63 266 73 354
116 98 49 183 113 262 196 110 116 172 220 217 363 46 146 52 222 38 500 -11
219 -11 259 3 322 23 110 68 192 180 330 162 199 211 268 254 350 74 146 105
274 104 438 -1 174 -37 317 -118 464 -43 77 -54 92 -210 279 -137 163 -185
246 -210 363 -14 65 -15 102 -4 312 14 257 10 327 -21 457 -43 173 -128 318
-266 451 -150 145 -246 192 -562 275 -348 91 -397 126 -610 438 -73 108 -165
230 -204 272 -129 138 -305 234 -507 276 -78 17 -118 19 -225 14 -151 -6 -203
-20 -460 -119 -220 -85 -242 -90 -355 -90 -114 0 -131 4 -380 100 -107 42
-224 84 -260 95 -89 25 -290 32 -390 13z m1444 -884 c292 -45 560 -131 821
-264 543 -276 965 -701 1230 -1241 133 -271 210 -517 257 -819 30 -193 32
-592 5 -767 -58 -370 -171 -696 -345 -1000 -45 -78 -178 -272 -248 -360 -92
-115 -287 -308 -411 -407 -414 -330 -858 -518 -1403 -595 -124 -17 -533 -17
-660 1 -640 88 -1191 362 -1623 805 -418 428 -670 940 -764 1546 -25 166 -25
608 0 770 117 746 493 1377 1080 1813 154 114 237 166 409 253 286 145 597
239 898 273 52 6 109 13 125 15 17 2 134 3 260 1 172 -2 265 -8 369 -24z"/>
<path d="M5130 9469 c-364 -42 -729 -177 -1048 -388 -483 -320 -847 -827 -990
-1381 -93 -359 -103 -722 -31 -1085 191 -960 966 -1718 1925 -1885 197 -34
392 -45 565 -32 500 37 923 192 1294 473 735 556 1085 1451 919 2354 -116 635
-496 1206 -1039 1565 -298 196 -653 328 -1008 375 -129 16 -457 19 -587 4z
m1767 -1350 c57 -28 95 -91 95 -159 0 -62 -35 -127 -80 -149 -19 -10 -373
-380 -864 -906 -1003 -1073 -990 -1060 -1046 -1075 -48 -12 -98 -6 -134 18
-26 17 -867 803 -925 863 -114 121 -36 310 128 309 24 -1 58 -9 75 -18 18 -9
205 -179 417 -377 212 -198 390 -361 395 -363 6 -2 115 109 243 245 1135 1206
1446 1538 1461 1561 45 69 151 92 235 51z"/>
</g>
</svg>
