<?xml version="1.0" standalone="no"?>
<!DOCTYPE svg PUBLIC "-//W3C//DTD SVG 20010904//EN"
 "http://www.w3.org/TR/2001/REC-SVG-20010904/DTD/svg10.dtd">
<svg version="1.0" xmlns="http://www.w3.org/2000/svg"
 width="1080.000000pt" height="1080.000000pt" viewBox="0 0 1080.000000 1080.000000"
 preserveAspectRatio="xMidYMid meet">

<g transform="translate(0.000000,1080.000000) scale(0.100000,-0.100000)"
fill="#000000" stroke="none">
<path d="M5100 10664 c-19 -2 -82 -9 -140 -15 -129 -14 -329 -49 -474 -84
-137 -33 -431 -129 -556 -183 -151 -65 -203 -138 -237 -332 -13 -73 -13 -116
-4 -300 25 -464 69 -816 246 -1990 101 -667 183 -1252 174 -1243 -17 19 -198
557 -294 873 -211 699 -383 1418 -500 2095 -19 116 -37 214 -38 219 -4 11
-232 -161 -360 -272 -417 -359 -770 -808 -1017 -1292 -224 -441 -380 -968
-419 -1422 -5 -64 -17 -133 -25 -153 -9 -20 -58 -78 -109 -128 -66 -64 -102
-109 -120 -147 -70 -151 -100 -410 -101 -880 -1 -283 1 -320 17 -362 l19 -48
208 0 209 0 5 -42 c3 -24 10 -97 16 -163 18 -196 70 -541 111 -740 40 -196
143 -578 203 -757 l71 -213 128 -75 129 -75 67 -170 c449 -1122 1071 -1999
1736 -2445 125 -84 159 -101 263 -134 521 -164 1643 -164 2167 1 107 34 150
57 284 153 237 168 427 342 625 568 417 478 788 1114 1100 1888 l57 140 126
75 126 74 24 65 c41 110 130 406 177 590 83 326 150 702 181 1015 9 88 18 179
21 203 l5 42 209 0 208 0 18 42 c36 83 29 635 -11 940 -32 249 -70 335 -200
463 -59 58 -96 103 -103 125 -6 19 -21 112 -32 205 -47 379 -122 672 -257
1015 -284 720 -780 1365 -1407 1833 -66 49 -121 85 -123 81 -1 -5 -21 -114
-43 -243 -108 -615 -239 -1180 -426 -1831 -85 -295 -304 -965 -343 -1050 l-21
-45 6 55 c11 105 86 628 160 1120 118 778 172 1161 204 1449 84 760 73 998
-54 1139 -29 32 -63 51 -154 90 -281 119 -617 208 -967 258 -104 15 -674 28
-765 18z m-2817 -5678 c24 -10 47 -35 79 -87 56 -90 112 -146 159 -159 47 -14
5691 -14 5738 0 47 13 103 69 159 159 47 76 81 101 137 101 29 0 29 11 10
-160 -48 -431 -136 -874 -247 -1236 l-30 -101 -142 -83 -141 -82 -24 -86
c-120 -440 -422 -1089 -719 -1547 -290 -447 -651 -811 -933 -939 -363 -165
-1517 -165 -1878 -1 -522 239 -1144 1101 -1529 2120 -58 153 -142 413 -142
438 0 7 -65 50 -144 96 l-144 84 -36 116 c-96 313 -192 781 -230 1136 -9 77
-18 164 -22 193 -5 51 -5 52 21 52 14 0 40 -6 58 -14z"/>
<path d="M2504 4603 c4 -22 106 -615 143 -833 19 -114 126 -204 333 -279 203
-73 404 -113 790 -157 215 -25 744 -25 900 -1 183 28 306 72 330 116 5 11 34
120 65 243 53 217 55 224 91 255 54 48 122 67 234 67 112 0 180 -19 234 -67
36 -31 38 -37 93 -262 65 -267 65 -266 190 -308 145 -48 285 -62 623 -61 308
0 436 8 700 45 485 68 819 199 883 346 9 21 46 211 82 423 36 212 70 407 75
433 6 26 10 52 10 57 0 6 -1070 10 -2891 10 l-2891 0 6 -27z"/>
</g>
</svg>
